<svg width="1746" height="313" viewBox="0 0 1746 313" fill="none" xmlns="http://www.w3.org/2000/svg">
<g clip-path="url(#clip0_3_63)">
<circle cx="150" cy="160" r="150" fill="#DAFF1F"/>
<rect x="220" y="230" width="80" height="80" fill="white"/>
<path d="M325.884 310L362.105 91.8182H401.629L385.116 192.067H387.78L489.413 91.8182H537.673L437.212 189.723L502.197 310H454.683L405.464 216.463L376.274 245.227L365.408 310H325.884ZM729.834 203.466C725.999 226.619 718.435 246.364 707.142 262.699C695.921 278.963 682.213 291.428 666.02 300.092C649.898 308.686 632.533 312.983 613.925 312.983C594.394 312.983 577.632 308.438 563.641 299.347C549.65 290.185 539.564 277.081 533.385 260.036C527.277 242.99 526.212 222.536 530.189 198.672C534.025 175.589 541.553 155.845 552.775 139.439C563.996 123.033 577.739 110.497 594.003 101.832C610.267 93.1676 627.81 88.8352 646.631 88.8352C666.02 88.8352 682.64 93.4162 696.489 102.578C710.409 111.669 720.424 124.773 726.532 141.889C732.711 159.006 733.811 179.531 729.834 203.466ZM690.949 198.672C693.577 182.55 693.328 168.949 690.203 157.869C687.15 146.79 681.716 138.445 673.904 132.834C666.091 127.152 656.468 124.311 645.033 124.311C632.675 124.311 621.24 127.401 610.729 133.58C600.289 139.687 591.411 148.636 584.096 160.426C576.851 172.216 571.88 186.562 569.181 203.466C566.34 219.659 566.517 233.26 569.713 244.268C572.909 255.277 578.449 263.587 586.333 269.197C594.216 274.737 603.84 277.507 615.203 277.507C627.49 277.507 638.854 274.453 649.294 268.345C659.735 262.237 668.577 253.324 675.821 241.605C683.137 229.886 688.179 215.575 690.949 198.672ZM965.035 91.8182L928.813 310H893.657L815.567 161.385H813.863L789.04 310H749.516L785.738 91.8182H821.107L899.09 240.54H901.114L925.724 91.8182H965.035ZM1116.45 152.862C1116.73 142.99 1113.71 135.426 1107.39 130.17C1101.14 124.915 1092.16 122.287 1080.44 122.287C1072.2 122.287 1064.92 123.53 1058.6 126.016C1052.35 128.43 1047.31 131.804 1043.47 136.136C1039.64 140.398 1037.26 145.263 1036.33 150.732C1035.55 155.206 1035.94 159.112 1037.5 162.45C1039.07 165.788 1041.45 168.629 1044.64 170.973C1047.91 173.317 1051.6 175.27 1055.72 176.832C1059.91 178.395 1064.17 179.709 1068.51 180.774L1088.11 185.888C1095.92 187.805 1103.38 190.398 1110.48 193.665C1117.58 196.861 1123.73 200.98 1128.91 206.023C1134.17 210.994 1138 216.996 1140.42 224.027C1142.83 231.058 1143.22 239.297 1141.59 248.743C1139.46 261.527 1134.31 272.784 1126.14 282.514C1118.04 292.173 1107.39 299.737 1094.18 305.206C1081.04 310.604 1065.74 313.303 1048.26 313.303C1031.36 313.303 1017.09 310.675 1005.44 305.419C993.79 300.092 985.267 292.386 979.87 282.301C974.543 272.216 972.838 259.964 974.756 245.547H1013.64C1012.86 253.146 1014.1 259.467 1017.37 264.51C1020.71 269.553 1025.5 273.317 1031.75 275.803C1038 278.288 1045.25 279.531 1053.48 279.531C1062.08 279.531 1069.86 278.253 1076.82 275.696C1083.78 273.068 1089.46 269.446 1093.86 264.83C1098.34 260.142 1101.07 254.673 1102.06 248.423C1103.06 242.812 1102.24 238.125 1099.61 234.361C1096.99 230.597 1092.9 227.472 1087.36 224.986C1081.89 222.429 1075.36 220.156 1067.76 218.168L1044.11 211.776C1026.99 207.088 1014 200.057 1005.12 190.682C996.311 181.307 993.186 168.807 995.743 153.182C997.874 140.256 1003.24 128.999 1011.83 119.411C1020.42 109.751 1031.18 102.259 1044.11 96.9318C1057.04 91.5341 1071.17 88.8352 1086.51 88.8352C1101.99 88.8352 1115.1 91.5341 1125.82 96.9318C1136.62 102.33 1144.5 109.858 1149.47 119.517C1154.51 129.105 1156.18 140.22 1154.48 152.862H1116.45ZM1166.7 310L1202.93 91.8182H1344.83L1339.29 124.95H1236.91L1227.11 184.183H1322.14L1316.6 217.315H1221.57L1211.77 276.868H1315L1309.46 310H1166.7ZM1348.93 310L1385.15 91.8182H1466.97C1483.73 91.8182 1497.3 94.9432 1507.67 101.193C1518.04 107.372 1525.24 115.93 1529.29 126.868C1533.34 137.734 1534.19 150.128 1531.85 164.048C1529.58 178.04 1524.57 190.469 1516.83 201.335C1509.16 212.202 1499.04 220.76 1486.47 227.01C1473.89 233.189 1459.19 236.278 1442.36 236.278H1388.13L1393.57 203.786H1442.47C1452.27 203.786 1460.58 202.081 1467.4 198.672C1474.29 195.263 1479.72 190.575 1483.7 184.609C1487.67 178.643 1490.3 171.79 1491.58 164.048C1492.79 156.307 1492.4 149.489 1490.41 143.594C1488.42 137.699 1484.55 133.118 1478.8 129.851C1473.11 126.513 1465.34 124.844 1455.46 124.844H1419.24L1388.45 310H1348.93ZM1562.8 124.95L1568.34 91.8182H1742.41L1736.87 124.95H1669.44L1638.76 310H1599.55L1630.23 124.95H1562.8Z" fill="white"/>
<path d="M335.869 47.9091H342.318L350.955 68.9886H351.295L359.932 47.9091H366.381V77H361.324V57.0142H361.054L353.014 76.9148H349.236L341.196 56.9716H340.926V77H335.869V47.9091ZM378.17 77.4403C376.788 77.4403 375.543 77.1941 374.435 76.7017C373.336 76.1998 372.465 75.4612 371.821 74.4858C371.187 73.5104 370.869 72.3078 370.869 70.8778C370.869 69.6468 371.097 68.6288 371.551 67.8239C372.006 67.0189 372.626 66.375 373.412 65.892C374.198 65.4091 375.083 65.0445 376.068 64.7983C377.063 64.5426 378.09 64.358 379.151 64.2443C380.429 64.1117 381.466 63.9934 382.261 63.8892C383.057 63.7756 383.634 63.6051 383.994 63.3778C384.364 63.1411 384.548 62.7765 384.548 62.2841V62.1989C384.548 61.1288 384.231 60.3002 383.597 59.7131C382.962 59.1259 382.048 58.8324 380.855 58.8324C379.596 58.8324 378.597 59.107 377.858 59.6562C377.129 60.2055 376.636 60.8542 376.381 61.6023L371.58 60.9205C371.958 59.5947 372.583 58.4867 373.455 57.5966C374.326 56.697 375.391 56.0246 376.651 55.5795C377.91 55.125 379.302 54.8977 380.827 54.8977C381.878 54.8977 382.924 55.0208 383.966 55.267C385.008 55.5133 385.959 55.9205 386.821 56.4886C387.683 57.0473 388.374 57.8097 388.895 58.7756C389.425 59.7415 389.69 60.9489 389.69 62.3977V77H384.747V74.0028H384.577C384.264 74.6089 383.824 75.1771 383.256 75.7074C382.697 76.2282 381.991 76.6496 381.139 76.9716C380.296 77.2841 379.307 77.4403 378.17 77.4403ZM379.506 73.6619C380.538 73.6619 381.433 73.4583 382.19 73.0511C382.948 72.6345 383.53 72.0852 383.938 71.4034C384.354 70.7216 384.562 69.9782 384.562 69.1733V66.6023C384.402 66.7348 384.127 66.858 383.739 66.9716C383.36 67.0852 382.934 67.1847 382.46 67.2699C381.987 67.3551 381.518 67.4309 381.054 67.4972C380.59 67.5634 380.188 67.6203 379.847 67.6676C379.08 67.7718 378.393 67.9422 377.787 68.179C377.181 68.4157 376.703 68.7472 376.352 69.1733C376.002 69.59 375.827 70.1297 375.827 70.7926C375.827 71.7396 376.172 72.4545 376.864 72.9375C377.555 73.4205 378.436 73.6619 379.506 73.6619ZM402.957 77.3835C401.243 77.3835 399.709 76.9432 398.355 76.0625C397.001 75.1818 395.931 73.9034 395.145 72.2273C394.359 70.5511 393.966 68.5152 393.966 66.1193C393.966 63.6951 394.364 61.6496 395.159 59.983C395.964 58.3068 397.048 57.0426 398.412 56.1903C399.776 55.3286 401.295 54.8977 402.972 54.8977C404.25 54.8977 405.301 55.1155 406.125 55.5511C406.949 55.9773 407.602 56.4934 408.085 57.0994C408.568 57.696 408.942 58.2595 409.207 58.7898H409.42V47.9091H414.577V77H409.52V73.5625H409.207C408.942 74.0928 408.559 74.6562 408.057 75.2528C407.555 75.84 406.892 76.3419 406.068 76.7585C405.244 77.1752 404.207 77.3835 402.957 77.3835ZM404.392 73.1648C405.481 73.1648 406.409 72.8712 407.176 72.2841C407.943 71.6875 408.526 70.8589 408.923 69.7983C409.321 68.7377 409.52 67.5019 409.52 66.0909C409.52 64.6799 409.321 63.4536 408.923 62.4119C408.535 61.3703 407.957 60.5606 407.19 59.983C406.433 59.4053 405.5 59.1165 404.392 59.1165C403.246 59.1165 402.29 59.4148 401.523 60.0114C400.756 60.608 400.178 61.4318 399.79 62.483C399.402 63.5341 399.207 64.7367 399.207 66.0909C399.207 67.4545 399.402 68.6714 399.79 69.7415C400.188 70.8021 400.77 71.6402 401.537 72.2557C402.313 72.8617 403.265 73.1648 404.392 73.1648ZM429.715 77.4261C427.528 77.4261 425.638 76.9716 424.048 76.0625C422.466 75.1439 421.249 73.8466 420.397 72.1705C419.545 70.4848 419.119 68.5009 419.119 66.2188C419.119 63.9744 419.545 62.0047 420.397 60.3097C421.259 58.6051 422.461 57.2794 424.005 56.3324C425.549 55.3759 427.362 54.8977 429.445 54.8977C430.79 54.8977 432.059 55.1155 433.252 55.5511C434.455 55.9773 435.515 56.6402 436.434 57.5398C437.362 58.4394 438.091 59.5852 438.621 60.9773C439.152 62.3598 439.417 64.0076 439.417 65.9205V67.4972H421.533V64.0312H434.488C434.478 63.0464 434.265 62.1705 433.849 61.4034C433.432 60.6269 432.85 60.0161 432.102 59.571C431.363 59.1259 430.501 58.9034 429.516 58.9034C428.465 58.9034 427.542 59.1591 426.746 59.6705C425.951 60.1723 425.331 60.8352 424.886 61.6591C424.45 62.4735 424.228 63.3684 424.218 64.3438V67.3693C424.218 68.6383 424.45 69.7273 424.914 70.6364C425.378 71.536 426.027 72.2273 426.86 72.7102C427.693 73.1837 428.669 73.4205 429.786 73.4205C430.534 73.4205 431.211 73.3163 431.817 73.108C432.424 72.8902 432.949 72.5729 433.394 72.1562C433.839 71.7396 434.175 71.2235 434.403 70.608L439.204 71.1477C438.901 72.4167 438.323 73.5246 437.471 74.4716C436.628 75.4091 435.549 76.1383 434.232 76.6591C432.916 77.1705 431.41 77.4261 429.715 77.4261ZM458.192 77L452.027 55.1818H457.268L461.104 70.5227H461.303L465.223 55.1818H470.408L474.328 70.4375H474.541L478.32 55.1818H483.575L477.396 77H472.041L467.95 62.2557H467.652L463.561 77H458.192ZM487.165 77V55.1818H492.308V77H487.165ZM489.751 52.0852C488.936 52.0852 488.236 51.8153 487.648 51.2756C487.061 50.7263 486.768 50.0682 486.768 49.3011C486.768 48.5246 487.061 47.8665 487.648 47.3267C488.236 46.7775 488.936 46.5028 489.751 46.5028C490.575 46.5028 491.275 46.7775 491.853 47.3267C492.44 47.8665 492.734 48.5246 492.734 49.3011C492.734 50.0682 492.44 50.7263 491.853 51.2756C491.275 51.8153 490.575 52.0852 489.751 52.0852ZM508.49 55.1818V59.1591H495.947V55.1818H508.49ZM499.044 49.9545H504.186V70.4375C504.186 71.1288 504.29 71.6591 504.499 72.0284C504.716 72.3883 505 72.6345 505.351 72.767C505.701 72.8996 506.089 72.9659 506.516 72.9659C506.838 72.9659 507.131 72.9422 507.396 72.8949C507.671 72.8475 507.879 72.8049 508.021 72.767L508.888 76.7869C508.613 76.8816 508.22 76.9858 507.709 77.0994C507.207 77.2131 506.591 77.2794 505.862 77.2983C504.574 77.3362 503.414 77.142 502.382 76.7159C501.35 76.2803 500.531 75.608 499.925 74.6989C499.328 73.7898 499.035 72.6534 499.044 71.2898V49.9545ZM518.401 64.2159V77H513.259V47.9091H518.288V58.8892H518.543C519.055 57.6581 519.845 56.6875 520.915 55.9773C521.995 55.2576 523.368 54.8977 525.035 54.8977C526.55 54.8977 527.871 55.215 528.998 55.8494C530.125 56.4839 530.996 57.4119 531.612 58.6335C532.237 59.8551 532.549 61.3466 532.549 63.108V77H527.407V63.9034C527.407 62.4356 527.028 61.2945 526.271 60.4801C525.522 59.6562 524.471 59.2443 523.117 59.2443C522.208 59.2443 521.394 59.4432 520.674 59.8409C519.964 60.2292 519.405 60.7926 518.998 61.5312C518.6 62.2699 518.401 63.1648 518.401 64.2159Z" fill="white"/>
</g>
<defs>
<clipPath id="clip0_3_63">
<rect width="1746" height="313" fill="white"/>
</clipPath>
</defs>
</svg>
