<svg xmlns="http://www.w3.org/2000/svg" xmlns:xlink="http://www.w3.org/1999/xlink" version="1.1" x="0px" y="0px" viewBox="0 0 78 97.5" enable-background="new 0 0 78 78" xml:space="preserve"><title>Arrow Down Left</title><desc>Created with Sketch.</desc><g><path d="M24,48c0-10,0-20,0-30h-6c0,14,0,28,0,42c14,0,28,0,42,0v-6c-10,0-20,0-30,0v-6H24L24,48z"/><polygon points="60,18 54,18 54,24 60,24 60,18  "/><polygon points="54,24 48,24 48,30 54,30 54,24  "/><polygon points="42,36 36,36 36,42 42,42 42,36  "/><polygon points="48,30 42,30 42,36 48,36 48,30  "/><polygon points="36,42 30,42 30,48 36,48 36,42  "/></g><text x="0" y="93" fill="#000000" font-size="5px" font-weight="bold" font-family="'Helvetica Neue', Helvetica, Arial-Unicode, Arial, Sans-serif">Created by Mikkel Mikkelsen</text><text x="0" y="98" fill="#000000" font-size="5px" font-weight="bold" font-family="'Helvetica Neue', Helvetica, Arial-Unicode, Arial, Sans-serif">from the Noun Project</text></svg>